<svg width="1204" height="1252" viewBox="0 0 1204 1252" fill="none" xmlns="http://www.w3.org/2000/svg">
<path d="M1203.5 646C1203.5 944.97 904.753 1187.5 536 1187.5C167.247 1187.5 -131.5 944.97 -131.5 646C-131.5 347.03 167.247 104.5 536 104.5C904.753 104.5 1203.5 347.03 1203.5 646Z" stroke="#614020"/>
<path d="M1083.5 472.5C1083.5 733.111 838.448 944.5 536 944.5C233.552 944.5 -11.5 733.111 -11.5 472.5C-11.5 211.889 233.552 0.5 536 0.5C838.448 0.5 1083.5 211.889 1083.5 472.5Z" stroke="#D7A069"/>
<path d="M942.5 358C942.5 555.383 760.566 715.5 536 715.5C311.434 715.5 129.5 555.383 129.5 358C129.5 160.617 311.434 0.5 536 0.5C760.566 0.5 942.5 160.617 942.5 358Z" stroke="#614020"/>
<circle cx="536.5" cy="923.5" r="84.5" fill="#0A0A0A"/>
<circle cx="536.5" cy="693.5" r="56.5" fill="#0A0A0A"/>
<circle cx="536.5" cy="1163.5" r="88.5" fill="#0A0A0A"/>
<path d="M516.3 692.15C516.3 695.25 516.383 697.933 516.55 700.2C516.75 702.433 517.083 704.283 517.55 705.75C518.05 707.183 518.733 708.25 519.6 708.95C520.467 709.65 521.6 710 523 710C524.4 710 525.533 709.65 526.4 708.95C527.267 708.25 527.933 707.183 528.4 705.75C528.9 704.283 529.233 702.433 529.4 700.2C529.6 697.933 529.7 695.25 529.7 692.15C529.7 689.05 529.6 686.383 529.4 684.15C529.233 681.917 528.9 680.083 528.4 678.65C527.933 677.183 527.267 676.1 526.4 675.4C525.533 674.7 524.4 674.35 523 674.35C521.6 674.35 520.467 674.7 519.6 675.4C518.733 676.1 518.05 677.183 517.55 678.65C517.083 680.083 516.75 681.917 516.55 684.15C516.383 686.383 516.3 689.05 516.3 692.15ZM511.3 692.15C511.3 690.15 511.45 688.067 511.75 685.9C512.083 683.7 512.683 681.7 513.55 679.9C514.417 678.067 515.6 676.567 517.1 675.4C518.633 674.233 520.6 673.65 523 673.65C525.4 673.65 527.35 674.233 528.85 675.4C530.383 676.567 531.583 678.067 532.45 679.9C533.317 681.7 533.9 683.7 534.2 685.9C534.533 688.067 534.7 690.15 534.7 692.15C534.7 694.183 534.533 696.3 534.2 698.5C533.9 700.667 533.317 702.667 532.45 704.5C531.583 706.3 530.383 707.783 528.85 708.95C527.35 710.117 525.4 710.7 523 710.7C520.6 710.7 518.633 710.117 517.1 708.95C515.6 707.783 514.417 706.3 513.55 704.5C512.683 702.667 512.083 700.667 511.75 698.5C511.45 696.3 511.3 694.183 511.3 692.15ZM542.177 709.3H547.727V677.6C547.227 677.967 546.66 678.333 546.027 678.7L540.327 681.95L539.927 681.3C542.127 680.067 544.127 678.883 545.927 677.75C547.727 676.617 549.427 675.25 551.027 673.65H552.027V709.3H557.577V710H542.177V709.3Z" fill="#D4904C" fill-opacity="0.5"/>
<path d="M508.82 921.01C508.82 925.35 508.937 929.107 509.17 932.28C509.45 935.407 509.917 937.997 510.57 940.05C511.27 942.057 512.227 943.55 513.44 944.53C514.653 945.51 516.24 946 518.2 946C520.16 946 521.747 945.51 522.96 944.53C524.173 943.55 525.107 942.057 525.76 940.05C526.46 937.997 526.927 935.407 527.16 932.28C527.44 929.107 527.58 925.35 527.58 921.01C527.58 916.67 527.44 912.937 527.16 909.81C526.927 906.683 526.46 904.117 525.76 902.11C525.107 900.057 524.173 898.54 522.96 897.56C521.747 896.58 520.16 896.09 518.2 896.09C516.24 896.09 514.653 896.58 513.44 897.56C512.227 898.54 511.27 900.057 510.57 902.11C509.917 904.117 509.45 906.683 509.17 909.81C508.937 912.937 508.82 916.67 508.82 921.01ZM501.82 921.01C501.82 918.21 502.03 915.293 502.45 912.26C502.917 909.18 503.757 906.38 504.97 903.86C506.183 901.293 507.84 899.193 509.94 897.56C512.087 895.927 514.84 895.11 518.2 895.11C521.56 895.11 524.29 895.927 526.39 897.56C528.537 899.193 530.217 901.293 531.43 903.86C532.643 906.38 533.46 909.18 533.88 912.26C534.347 915.293 534.58 918.21 534.58 921.01C534.58 923.857 534.347 926.82 533.88 929.9C533.46 932.933 532.643 935.733 531.43 938.3C530.217 940.82 528.537 942.897 526.39 944.53C524.29 946.163 521.56 946.98 518.2 946.98C514.84 946.98 512.087 946.163 509.94 944.53C507.84 942.897 506.183 940.82 504.97 938.3C503.757 935.733 502.917 932.933 502.45 929.9C502.03 926.82 501.82 923.857 501.82 921.01ZM569.197 946H537.207V945.02C539.027 943.48 540.684 942.057 542.177 940.75C543.717 939.443 545.141 938.16 546.447 936.9C547.801 935.64 549.084 934.357 550.297 933.05C551.511 931.743 552.747 930.343 554.007 928.85C556.994 925.21 559.024 921.687 560.097 918.28C561.217 914.873 561.777 911.723 561.777 908.83C561.777 904.63 561.054 901.457 559.607 899.31C558.207 897.163 555.967 896.09 552.887 896.09C550.507 896.09 548.547 896.627 547.007 897.7C545.467 898.727 544.697 900.173 544.697 902.04C544.697 902.693 544.837 903.37 545.117 904.07C545.444 904.723 545.607 905.4 545.607 906.1C545.607 906.893 545.327 907.5 544.767 907.92C544.207 908.293 543.554 908.48 542.807 908.48C541.827 908.48 540.987 908.223 540.287 907.71C539.587 907.197 539.237 906.263 539.237 904.91C539.237 903.697 539.587 902.507 540.287 901.34C540.987 900.127 541.944 899.077 543.157 898.19C544.371 897.257 545.817 896.51 547.497 895.95C549.177 895.39 550.974 895.11 552.887 895.11C555.594 895.11 557.904 895.507 559.817 896.3C561.777 897.093 563.387 898.143 564.647 899.45C565.907 900.71 566.841 902.157 567.447 903.79C568.054 905.423 568.357 907.103 568.357 908.83C568.357 910.93 568.054 912.89 567.447 914.71C566.841 916.483 566.001 918.163 564.927 919.75C563.901 921.337 562.711 922.853 561.357 924.3C560.004 925.747 558.581 927.193 557.087 928.64C554.987 930.74 552.911 932.747 550.857 934.66C548.851 936.573 546.634 938.627 544.207 940.82H560.237C562.991 940.82 564.974 940.167 566.187 938.86C567.401 937.507 568.147 935.663 568.427 933.33H569.197V946Z" fill="#D4904C"/>
<path d="M516.3 1170.15C516.3 1173.25 516.383 1175.93 516.55 1178.2C516.75 1180.43 517.083 1182.28 517.55 1183.75C518.05 1185.18 518.733 1186.25 519.6 1186.95C520.467 1187.65 521.6 1188 523 1188C524.4 1188 525.533 1187.65 526.4 1186.95C527.267 1186.25 527.933 1185.18 528.4 1183.75C528.9 1182.28 529.233 1180.43 529.4 1178.2C529.6 1175.93 529.7 1173.25 529.7 1170.15C529.7 1167.05 529.6 1164.38 529.4 1162.15C529.233 1159.92 528.9 1158.08 528.4 1156.65C527.933 1155.18 527.267 1154.1 526.4 1153.4C525.533 1152.7 524.4 1152.35 523 1152.35C521.6 1152.35 520.467 1152.7 519.6 1153.4C518.733 1154.1 518.05 1155.18 517.55 1156.65C517.083 1158.08 516.75 1159.92 516.55 1162.15C516.383 1164.38 516.3 1167.05 516.3 1170.15ZM511.3 1170.15C511.3 1168.15 511.45 1166.07 511.75 1163.9C512.083 1161.7 512.683 1159.7 513.55 1157.9C514.417 1156.07 515.6 1154.57 517.1 1153.4C518.633 1152.23 520.6 1151.65 523 1151.65C525.4 1151.65 527.35 1152.23 528.85 1153.4C530.383 1154.57 531.583 1156.07 532.45 1157.9C533.317 1159.7 533.9 1161.7 534.2 1163.9C534.533 1166.07 534.7 1168.15 534.7 1170.15C534.7 1172.18 534.533 1174.3 534.2 1176.5C533.9 1178.67 533.317 1180.67 532.45 1182.5C531.583 1184.3 530.383 1185.78 528.85 1186.95C527.35 1188.12 525.4 1188.7 523 1188.7C520.6 1188.7 518.633 1188.12 517.1 1186.95C515.6 1185.78 514.417 1184.3 513.55 1182.5C512.683 1180.67 512.083 1178.67 511.75 1176.5C511.45 1174.3 511.3 1172.18 511.3 1170.15ZM541.377 1169.4C541.643 1169.27 541.91 1169.13 542.177 1169C542.443 1168.87 542.743 1168.73 543.077 1168.6C543.443 1168.47 543.86 1168.33 544.327 1168.2C544.827 1168.03 545.41 1167.87 546.077 1167.7C547.543 1167.3 548.76 1166.8 549.727 1166.2C550.693 1165.6 551.443 1164.9 551.977 1164.1C552.543 1163.3 552.927 1162.42 553.127 1161.45C553.36 1160.48 553.477 1159.43 553.477 1158.3C553.477 1157.5 553.393 1156.75 553.227 1156.05C553.06 1155.32 552.777 1154.68 552.377 1154.15C551.977 1153.58 551.443 1153.15 550.777 1152.85C550.143 1152.52 549.327 1152.35 548.327 1152.35C547.227 1152.35 546.327 1152.5 545.627 1152.8C544.927 1153.07 544.377 1153.4 543.977 1153.8C543.61 1154.17 543.36 1154.55 543.227 1154.95C543.093 1155.32 543.027 1155.62 543.027 1155.85C543.027 1156.75 543.16 1157.43 543.427 1157.9C543.727 1158.37 543.877 1158.78 543.877 1159.15C543.877 1159.75 543.66 1160.17 543.227 1160.4C542.827 1160.63 542.343 1160.75 541.777 1160.75C540.31 1160.75 539.577 1160.03 539.577 1158.6C539.577 1158.17 539.71 1157.57 539.977 1156.8C540.277 1156 540.777 1155.22 541.477 1154.45C542.177 1153.68 543.11 1153.03 544.277 1152.5C545.477 1151.93 546.96 1151.65 548.727 1151.65C550.327 1151.65 551.71 1151.9 552.877 1152.4C554.077 1152.9 555.06 1153.53 555.827 1154.3C556.593 1155.03 557.16 1155.85 557.527 1156.75C557.893 1157.62 558.077 1158.45 558.077 1159.25C558.077 1160.65 557.66 1161.85 556.827 1162.85C556.027 1163.85 555.077 1164.68 553.977 1165.35C552.91 1166.02 551.827 1166.53 550.727 1166.9C549.627 1167.27 548.793 1167.5 548.227 1167.6V1167.7C549.66 1167.77 551.043 1168.05 552.377 1168.55C553.71 1169.05 554.893 1169.75 555.927 1170.65C556.96 1171.52 557.777 1172.55 558.377 1173.75C558.977 1174.95 559.277 1176.3 559.277 1177.8C559.277 1179.13 558.977 1180.45 558.377 1181.75C557.81 1183.05 556.993 1184.22 555.927 1185.25C554.893 1186.28 553.627 1187.12 552.127 1187.75C550.66 1188.38 549.027 1188.7 547.227 1188.7C545.56 1188.7 544.143 1188.47 542.977 1188C541.81 1187.57 540.843 1186.98 540.077 1186.25C539.31 1185.48 538.71 1184.65 538.277 1183.75C537.843 1182.82 537.543 1181.87 537.377 1180.9L538.077 1180.75C538.143 1181.22 538.31 1181.85 538.577 1182.65C538.843 1183.45 539.293 1184.25 539.927 1185.05C540.593 1185.85 541.493 1186.55 542.627 1187.15C543.793 1187.72 545.293 1188 547.127 1188C548.16 1188 549.127 1187.85 550.027 1187.55C550.927 1187.25 551.693 1186.7 552.327 1185.9C552.993 1185.1 553.51 1184.02 553.877 1182.65C554.243 1181.25 554.427 1179.47 554.427 1177.3C554.427 1176.2 554.343 1175.12 554.177 1174.05C554.01 1172.95 553.677 1171.98 553.177 1171.15C552.677 1170.28 551.993 1169.58 551.127 1169.05C550.26 1168.52 549.127 1168.25 547.727 1168.25C546.56 1168.25 545.493 1168.43 544.527 1168.8C543.56 1169.13 542.66 1169.6 541.827 1170.2L541.377 1169.4Z" fill="#D4904C"/>
<path d="M489.16 734.56C489.267 734.507 489.373 734.453 489.48 734.4C489.587 734.347 489.707 734.293 489.84 734.24C489.987 734.187 490.153 734.133 490.34 734.08C490.54 734.013 490.773 733.947 491.04 733.88C491.627 733.72 492.113 733.52 492.5 733.28C492.887 733.04 493.187 732.76 493.4 732.44C493.627 732.12 493.78 731.767 493.86 731.38C493.953 730.993 494 730.573 494 730.12C494 729.8 493.967 729.5 493.9 729.22C493.833 728.927 493.72 728.673 493.56 728.46C493.4 728.233 493.187 728.06 492.92 727.94C492.667 727.807 492.34 727.74 491.94 727.74C491.5 727.74 491.14 727.8 490.86 727.92C490.58 728.027 490.36 728.16 490.2 728.32C490.053 728.467 489.953 728.62 489.9 728.78C489.847 728.927 489.82 729.047 489.82 729.14C489.82 729.5 489.873 729.773 489.98 729.96C490.1 730.147 490.16 730.313 490.16 730.46C490.16 730.7 490.073 730.867 489.9 730.96C489.74 731.053 489.547 731.1 489.32 731.1C488.733 731.1 488.44 730.813 488.44 730.24C488.44 730.067 488.493 729.827 488.6 729.52C488.72 729.2 488.92 728.887 489.2 728.58C489.48 728.273 489.853 728.013 490.32 727.8C490.8 727.573 491.393 727.46 492.1 727.46C492.74 727.46 493.293 727.56 493.76 727.76C494.24 727.96 494.633 728.213 494.94 728.52C495.247 728.813 495.473 729.14 495.62 729.5C495.767 729.847 495.84 730.18 495.84 730.5C495.84 731.06 495.673 731.54 495.34 731.94C495.02 732.34 494.64 732.673 494.2 732.94C493.773 733.207 493.34 733.413 492.9 733.56C492.46 733.707 492.127 733.8 491.9 733.84V733.88C492.473 733.907 493.027 734.02 493.56 734.22C494.093 734.42 494.567 734.7 494.98 735.06C495.393 735.407 495.72 735.82 495.96 736.3C496.2 736.78 496.32 737.32 496.32 737.92C496.32 738.453 496.2 738.98 495.96 739.5C495.733 740.02 495.407 740.487 494.98 740.9C494.567 741.313 494.06 741.647 493.46 741.9C492.873 742.153 492.22 742.28 491.5 742.28C490.833 742.28 490.267 742.187 489.8 742C489.333 741.827 488.947 741.593 488.64 741.3C488.333 740.993 488.093 740.66 487.92 740.3C487.747 739.927 487.627 739.547 487.56 739.16L487.84 739.1C487.867 739.287 487.933 739.54 488.04 739.86C488.147 740.18 488.327 740.5 488.58 740.82C488.847 741.14 489.207 741.42 489.66 741.66C490.127 741.887 490.727 742 491.46 742C491.873 742 492.26 741.94 492.62 741.82C492.98 741.7 493.287 741.48 493.54 741.16C493.807 740.84 494.013 740.407 494.16 739.86C494.307 739.3 494.38 738.587 494.38 737.72C494.38 737.28 494.347 736.847 494.28 736.42C494.213 735.98 494.08 735.593 493.88 735.26C493.68 734.913 493.407 734.633 493.06 734.42C492.713 734.207 492.26 734.1 491.7 734.1C491.233 734.1 490.807 734.173 490.42 734.32C490.033 734.453 489.673 734.64 489.34 734.88L489.16 734.56ZM499.871 741.72H502.091V729.04C501.891 729.187 501.664 729.333 501.411 729.48L499.131 730.78L498.971 730.52C499.851 730.027 500.651 729.553 501.371 729.1C502.091 728.647 502.771 728.1 503.411 727.46H503.811V741.72H506.031V742H499.871V741.72ZM509.621 736.98H513.341V738.3H509.621V736.98ZM517.664 741.72H519.884V729.04C519.684 729.187 519.457 729.333 519.204 729.48L516.924 730.78L516.764 730.52C517.644 730.027 518.444 729.553 519.164 729.1C519.884 728.647 520.564 728.1 521.204 727.46H521.604V741.72H523.824V742H517.664V741.72ZM528.094 734.86C528.094 736.1 528.128 737.173 528.194 738.08C528.274 738.973 528.408 739.713 528.594 740.3C528.794 740.873 529.068 741.3 529.414 741.58C529.761 741.86 530.214 742 530.774 742C531.334 742 531.788 741.86 532.134 741.58C532.481 741.3 532.748 740.873 532.934 740.3C533.134 739.713 533.268 738.973 533.334 738.08C533.414 737.173 533.454 736.1 533.454 734.86C533.454 733.62 533.414 732.553 533.334 731.66C533.268 730.767 533.134 730.033 532.934 729.46C532.748 728.873 532.481 728.44 532.134 728.16C531.788 727.88 531.334 727.74 530.774 727.74C530.214 727.74 529.761 727.88 529.414 728.16C529.068 728.44 528.794 728.873 528.594 729.46C528.408 730.033 528.274 730.767 528.194 731.66C528.128 732.553 528.094 733.62 528.094 734.86ZM526.094 734.86C526.094 734.06 526.154 733.227 526.274 732.36C526.408 731.48 526.648 730.68 526.994 729.96C527.341 729.227 527.814 728.627 528.414 728.16C529.028 727.693 529.814 727.46 530.774 727.46C531.734 727.46 532.514 727.693 533.114 728.16C533.728 728.627 534.208 729.227 534.554 729.96C534.901 730.68 535.134 731.48 535.254 732.36C535.388 733.227 535.454 734.06 535.454 734.86C535.454 735.673 535.388 736.52 535.254 737.4C535.134 738.267 534.901 739.067 534.554 739.8C534.208 740.52 533.728 741.113 533.114 741.58C532.514 742.047 531.734 742.28 530.774 742.28C529.814 742.28 529.028 742.047 528.414 741.58C527.814 741.113 527.341 740.52 526.994 739.8C526.648 739.067 526.408 738.267 526.274 737.4C526.154 736.52 526.094 735.673 526.094 734.86ZM537.805 736.98H541.525V738.3H537.805V736.98ZM552.747 742H543.607V741.72C544.127 741.28 544.601 740.873 545.027 740.5C545.467 740.127 545.874 739.76 546.247 739.4C546.634 739.04 547.001 738.673 547.347 738.3C547.694 737.927 548.047 737.527 548.407 737.1C549.261 736.06 549.841 735.053 550.147 734.08C550.467 733.107 550.627 732.207 550.627 731.38C550.627 730.18 550.421 729.273 550.007 728.66C549.607 728.047 548.967 727.74 548.087 727.74C547.407 727.74 546.847 727.893 546.407 728.2C545.967 728.493 545.747 728.907 545.747 729.44C545.747 729.627 545.787 729.82 545.867 730.02C545.961 730.207 546.007 730.4 546.007 730.6C546.007 730.827 545.927 731 545.767 731.12C545.607 731.227 545.421 731.28 545.207 731.28C544.927 731.28 544.687 731.207 544.487 731.06C544.287 730.913 544.187 730.647 544.187 730.26C544.187 729.913 544.287 729.573 544.487 729.24C544.687 728.893 544.961 728.593 545.307 728.34C545.654 728.073 546.067 727.86 546.547 727.7C547.027 727.54 547.541 727.46 548.087 727.46C548.861 727.46 549.521 727.573 550.067 727.8C550.627 728.027 551.087 728.327 551.447 728.7C551.807 729.06 552.074 729.473 552.247 729.94C552.421 730.407 552.507 730.887 552.507 731.38C552.507 731.98 552.421 732.54 552.247 733.06C552.074 733.567 551.834 734.047 551.527 734.5C551.234 734.953 550.894 735.387 550.507 735.8C550.121 736.213 549.714 736.627 549.287 737.04C548.687 737.64 548.094 738.213 547.507 738.76C546.934 739.307 546.301 739.893 545.607 740.52H550.187C550.974 740.52 551.541 740.333 551.887 739.96C552.234 739.573 552.447 739.047 552.527 738.38H552.747V742ZM556.278 734.86C556.278 736.1 556.311 737.173 556.378 738.08C556.458 738.973 556.591 739.713 556.778 740.3C556.978 740.873 557.251 741.3 557.598 741.58C557.944 741.86 558.398 742 558.958 742C559.518 742 559.971 741.86 560.318 741.58C560.664 741.3 560.931 740.873 561.118 740.3C561.318 739.713 561.451 738.973 561.518 738.08C561.598 737.173 561.638 736.1 561.638 734.86C561.638 733.62 561.598 732.553 561.518 731.66C561.451 730.767 561.318 730.033 561.118 729.46C560.931 728.873 560.664 728.44 560.318 728.16C559.971 727.88 559.518 727.74 558.958 727.74C558.398 727.74 557.944 727.88 557.598 728.16C557.251 728.44 556.978 728.873 556.778 729.46C556.591 730.033 556.458 730.767 556.378 731.66C556.311 732.553 556.278 733.62 556.278 734.86ZM554.278 734.86C554.278 734.06 554.338 733.227 554.458 732.36C554.591 731.48 554.831 730.68 555.178 729.96C555.524 729.227 555.998 728.627 556.598 728.16C557.211 727.693 557.998 727.46 558.958 727.46C559.918 727.46 560.698 727.693 561.298 728.16C561.911 728.627 562.391 729.227 562.738 729.96C563.084 730.68 563.318 731.48 563.438 732.36C563.571 733.227 563.638 734.06 563.638 734.86C563.638 735.673 563.571 736.52 563.438 737.4C563.318 738.267 563.084 739.067 562.738 739.8C562.391 740.52 561.911 741.113 561.298 741.58C560.698 742.047 559.918 742.28 558.958 742.28C557.998 742.28 557.211 742.047 556.598 741.58C555.998 741.113 555.524 740.52 555.178 739.8C554.831 739.067 554.591 738.267 554.458 737.4C554.338 736.52 554.278 735.673 554.278 734.86ZM573.528 742H564.388V741.72C564.908 741.28 565.382 740.873 565.808 740.5C566.248 740.127 566.655 739.76 567.028 739.4C567.415 739.04 567.782 738.673 568.128 738.3C568.475 737.927 568.828 737.527 569.188 737.1C570.042 736.06 570.622 735.053 570.928 734.08C571.248 733.107 571.408 732.207 571.408 731.38C571.408 730.18 571.202 729.273 570.788 728.66C570.388 728.047 569.748 727.74 568.868 727.74C568.188 727.74 567.628 727.893 567.188 728.2C566.748 728.493 566.528 728.907 566.528 729.44C566.528 729.627 566.568 729.82 566.648 730.02C566.742 730.207 566.788 730.4 566.788 730.6C566.788 730.827 566.708 731 566.548 731.12C566.388 731.227 566.202 731.28 565.988 731.28C565.708 731.28 565.468 731.207 565.268 731.06C565.068 730.913 564.968 730.647 564.968 730.26C564.968 729.913 565.068 729.573 565.268 729.24C565.468 728.893 565.742 728.593 566.088 728.34C566.435 728.073 566.848 727.86 567.328 727.7C567.808 727.54 568.322 727.46 568.868 727.46C569.642 727.46 570.302 727.573 570.848 727.8C571.408 728.027 571.868 728.327 572.228 728.7C572.588 729.06 572.855 729.473 573.028 729.94C573.202 730.407 573.288 730.887 573.288 731.38C573.288 731.98 573.202 732.54 573.028 733.06C572.855 733.567 572.615 734.047 572.308 734.5C572.015 734.953 571.675 735.387 571.288 735.8C570.902 736.213 570.495 736.627 570.068 737.04C569.468 737.64 568.875 738.213 568.288 738.76C567.715 739.307 567.082 739.893 566.388 740.52H570.968C571.755 740.52 572.322 740.333 572.668 739.96C573.015 739.573 573.228 739.047 573.308 738.38H573.528V742ZM576.699 734.56C576.806 734.507 576.912 734.453 577.019 734.4C577.126 734.347 577.246 734.293 577.379 734.24C577.526 734.187 577.692 734.133 577.879 734.08C578.079 734.013 578.312 733.947 578.579 733.88C579.166 733.72 579.652 733.52 580.039 733.28C580.426 733.04 580.726 732.76 580.939 732.44C581.166 732.12 581.319 731.767 581.399 731.38C581.492 730.993 581.539 730.573 581.539 730.12C581.539 729.8 581.506 729.5 581.439 729.22C581.372 728.927 581.259 728.673 581.099 728.46C580.939 728.233 580.726 728.06 580.459 727.94C580.206 727.807 579.879 727.74 579.479 727.74C579.039 727.74 578.679 727.8 578.399 727.92C578.119 728.027 577.899 728.16 577.739 728.32C577.592 728.467 577.492 728.62 577.439 728.78C577.386 728.927 577.359 729.047 577.359 729.14C577.359 729.5 577.412 729.773 577.519 729.96C577.639 730.147 577.699 730.313 577.699 730.46C577.699 730.7 577.612 730.867 577.439 730.96C577.279 731.053 577.086 731.1 576.859 731.1C576.272 731.1 575.979 730.813 575.979 730.24C575.979 730.067 576.032 729.827 576.139 729.52C576.259 729.2 576.459 728.887 576.739 728.58C577.019 728.273 577.392 728.013 577.859 727.8C578.339 727.573 578.932 727.46 579.639 727.46C580.279 727.46 580.832 727.56 581.299 727.76C581.779 727.96 582.172 728.213 582.479 728.52C582.786 728.813 583.012 729.14 583.159 729.5C583.306 729.847 583.379 730.18 583.379 730.5C583.379 731.06 583.212 731.54 582.879 731.94C582.559 732.34 582.179 732.673 581.739 732.94C581.312 733.207 580.879 733.413 580.439 733.56C579.999 733.707 579.666 733.8 579.439 733.84V733.88C580.012 733.907 580.566 734.02 581.099 734.22C581.632 734.42 582.106 734.7 582.519 735.06C582.932 735.407 583.259 735.82 583.499 736.3C583.739 736.78 583.859 737.32 583.859 737.92C583.859 738.453 583.739 738.98 583.499 739.5C583.272 740.02 582.946 740.487 582.519 740.9C582.106 741.313 581.599 741.647 580.999 741.9C580.412 742.153 579.759 742.28 579.039 742.28C578.372 742.28 577.806 742.187 577.339 742C576.872 741.827 576.486 741.593 576.179 741.3C575.872 740.993 575.632 740.66 575.459 740.3C575.286 739.927 575.166 739.547 575.099 739.16L575.379 739.1C575.406 739.287 575.472 739.54 575.579 739.86C575.686 740.18 575.866 740.5 576.119 740.82C576.386 741.14 576.746 741.42 577.199 741.66C577.666 741.887 578.266 742 578.999 742C579.412 742 579.799 741.94 580.159 741.82C580.519 741.7 580.826 741.48 581.079 741.16C581.346 740.84 581.552 740.407 581.699 739.86C581.846 739.3 581.919 738.587 581.919 737.72C581.919 737.28 581.886 736.847 581.819 736.42C581.752 735.98 581.619 735.593 581.419 735.26C581.219 734.913 580.946 734.633 580.599 734.42C580.252 734.207 579.799 734.1 579.239 734.1C578.772 734.1 578.346 734.173 577.959 734.32C577.572 734.453 577.212 734.64 576.879 734.88L576.699 734.56Z" fill="#D4904C" fill-opacity="0.5"/>
<path d="M489.16 1214.56C489.267 1214.51 489.373 1214.45 489.48 1214.4C489.587 1214.35 489.707 1214.29 489.84 1214.24C489.987 1214.19 490.153 1214.13 490.34 1214.08C490.54 1214.01 490.773 1213.95 491.04 1213.88C491.627 1213.72 492.113 1213.52 492.5 1213.28C492.887 1213.04 493.187 1212.76 493.4 1212.44C493.627 1212.12 493.78 1211.77 493.86 1211.38C493.953 1210.99 494 1210.57 494 1210.12C494 1209.8 493.967 1209.5 493.9 1209.22C493.833 1208.93 493.72 1208.67 493.56 1208.46C493.4 1208.23 493.187 1208.06 492.92 1207.94C492.667 1207.81 492.34 1207.74 491.94 1207.74C491.5 1207.74 491.14 1207.8 490.86 1207.92C490.58 1208.03 490.36 1208.16 490.2 1208.32C490.053 1208.47 489.953 1208.62 489.9 1208.78C489.847 1208.93 489.82 1209.05 489.82 1209.14C489.82 1209.5 489.873 1209.77 489.98 1209.96C490.1 1210.15 490.16 1210.31 490.16 1210.46C490.16 1210.7 490.073 1210.87 489.9 1210.96C489.74 1211.05 489.547 1211.1 489.32 1211.1C488.733 1211.1 488.44 1210.81 488.44 1210.24C488.44 1210.07 488.493 1209.83 488.6 1209.52C488.72 1209.2 488.92 1208.89 489.2 1208.58C489.48 1208.27 489.853 1208.01 490.32 1207.8C490.8 1207.57 491.393 1207.46 492.1 1207.46C492.74 1207.46 493.293 1207.56 493.76 1207.76C494.24 1207.96 494.633 1208.21 494.94 1208.52C495.247 1208.81 495.473 1209.14 495.62 1209.5C495.767 1209.85 495.84 1210.18 495.84 1210.5C495.84 1211.06 495.673 1211.54 495.34 1211.94C495.02 1212.34 494.64 1212.67 494.2 1212.94C493.773 1213.21 493.34 1213.41 492.9 1213.56C492.46 1213.71 492.127 1213.8 491.9 1213.84V1213.88C492.473 1213.91 493.027 1214.02 493.56 1214.22C494.093 1214.42 494.567 1214.7 494.98 1215.06C495.393 1215.41 495.72 1215.82 495.96 1216.3C496.2 1216.78 496.32 1217.32 496.32 1217.92C496.32 1218.45 496.2 1218.98 495.96 1219.5C495.733 1220.02 495.407 1220.49 494.98 1220.9C494.567 1221.31 494.06 1221.65 493.46 1221.9C492.873 1222.15 492.22 1222.28 491.5 1222.28C490.833 1222.28 490.267 1222.19 489.8 1222C489.333 1221.83 488.947 1221.59 488.64 1221.3C488.333 1220.99 488.093 1220.66 487.92 1220.3C487.747 1219.93 487.627 1219.55 487.56 1219.16L487.84 1219.1C487.867 1219.29 487.933 1219.54 488.04 1219.86C488.147 1220.18 488.327 1220.5 488.58 1220.82C488.847 1221.14 489.207 1221.42 489.66 1221.66C490.127 1221.89 490.727 1222 491.46 1222C491.873 1222 492.26 1221.94 492.62 1221.82C492.98 1221.7 493.287 1221.48 493.54 1221.16C493.807 1220.84 494.013 1220.41 494.16 1219.86C494.307 1219.3 494.38 1218.59 494.38 1217.72C494.38 1217.28 494.347 1216.85 494.28 1216.42C494.213 1215.98 494.08 1215.59 493.88 1215.26C493.68 1214.91 493.407 1214.63 493.06 1214.42C492.713 1214.21 492.26 1214.1 491.7 1214.1C491.233 1214.1 490.807 1214.17 490.42 1214.32C490.033 1214.45 489.673 1214.64 489.34 1214.88L489.16 1214.56ZM499.871 1221.72H502.091V1209.04C501.891 1209.19 501.664 1209.33 501.411 1209.48L499.131 1210.78L498.971 1210.52C499.851 1210.03 500.651 1209.55 501.371 1209.1C502.091 1208.65 502.771 1208.1 503.411 1207.46H503.811V1221.72H506.031V1222H499.871V1221.72ZM509.621 1216.98H513.341V1218.3H509.621V1216.98ZM517.664 1221.72H519.884V1209.04C519.684 1209.19 519.457 1209.33 519.204 1209.48L516.924 1210.78L516.764 1210.52C517.644 1210.03 518.444 1209.55 519.164 1209.1C519.884 1208.65 520.564 1208.1 521.204 1207.46H521.604V1221.72H523.824V1222H517.664V1221.72ZM528.094 1214.86C528.094 1216.1 528.128 1217.17 528.194 1218.08C528.274 1218.97 528.408 1219.71 528.594 1220.3C528.794 1220.87 529.068 1221.3 529.414 1221.58C529.761 1221.86 530.214 1222 530.774 1222C531.334 1222 531.788 1221.86 532.134 1221.58C532.481 1221.3 532.748 1220.87 532.934 1220.3C533.134 1219.71 533.268 1218.97 533.334 1218.08C533.414 1217.17 533.454 1216.1 533.454 1214.86C533.454 1213.62 533.414 1212.55 533.334 1211.66C533.268 1210.77 533.134 1210.03 532.934 1209.46C532.748 1208.87 532.481 1208.44 532.134 1208.16C531.788 1207.88 531.334 1207.74 530.774 1207.74C530.214 1207.74 529.761 1207.88 529.414 1208.16C529.068 1208.44 528.794 1208.87 528.594 1209.46C528.408 1210.03 528.274 1210.77 528.194 1211.66C528.128 1212.55 528.094 1213.62 528.094 1214.86ZM526.094 1214.86C526.094 1214.06 526.154 1213.23 526.274 1212.36C526.408 1211.48 526.648 1210.68 526.994 1209.96C527.341 1209.23 527.814 1208.63 528.414 1208.16C529.028 1207.69 529.814 1207.46 530.774 1207.46C531.734 1207.46 532.514 1207.69 533.114 1208.16C533.728 1208.63 534.208 1209.23 534.554 1209.96C534.901 1210.68 535.134 1211.48 535.254 1212.36C535.388 1213.23 535.454 1214.06 535.454 1214.86C535.454 1215.67 535.388 1216.52 535.254 1217.4C535.134 1218.27 534.901 1219.07 534.554 1219.8C534.208 1220.52 533.728 1221.11 533.114 1221.58C532.514 1222.05 531.734 1222.28 530.774 1222.28C529.814 1222.28 529.028 1222.05 528.414 1221.58C527.814 1221.11 527.341 1220.52 526.994 1219.8C526.648 1219.07 526.408 1218.27 526.274 1217.4C526.154 1216.52 526.094 1215.67 526.094 1214.86ZM537.805 1216.98H541.525V1218.3H537.805V1216.98ZM552.747 1222H543.607V1221.72C544.127 1221.28 544.601 1220.87 545.027 1220.5C545.467 1220.13 545.874 1219.76 546.247 1219.4C546.634 1219.04 547.001 1218.67 547.347 1218.3C547.694 1217.93 548.047 1217.53 548.407 1217.1C549.261 1216.06 549.841 1215.05 550.147 1214.08C550.467 1213.11 550.627 1212.21 550.627 1211.38C550.627 1210.18 550.421 1209.27 550.007 1208.66C549.607 1208.05 548.967 1207.74 548.087 1207.74C547.407 1207.74 546.847 1207.89 546.407 1208.2C545.967 1208.49 545.747 1208.91 545.747 1209.44C545.747 1209.63 545.787 1209.82 545.867 1210.02C545.961 1210.21 546.007 1210.4 546.007 1210.6C546.007 1210.83 545.927 1211 545.767 1211.12C545.607 1211.23 545.421 1211.28 545.207 1211.28C544.927 1211.28 544.687 1211.21 544.487 1211.06C544.287 1210.91 544.187 1210.65 544.187 1210.26C544.187 1209.91 544.287 1209.57 544.487 1209.24C544.687 1208.89 544.961 1208.59 545.307 1208.34C545.654 1208.07 546.067 1207.86 546.547 1207.7C547.027 1207.54 547.541 1207.46 548.087 1207.46C548.861 1207.46 549.521 1207.57 550.067 1207.8C550.627 1208.03 551.087 1208.33 551.447 1208.7C551.807 1209.06 552.074 1209.47 552.247 1209.94C552.421 1210.41 552.507 1210.89 552.507 1211.38C552.507 1211.98 552.421 1212.54 552.247 1213.06C552.074 1213.57 551.834 1214.05 551.527 1214.5C551.234 1214.95 550.894 1215.39 550.507 1215.8C550.121 1216.21 549.714 1216.63 549.287 1217.04C548.687 1217.64 548.094 1218.21 547.507 1218.76C546.934 1219.31 546.301 1219.89 545.607 1220.52H550.187C550.974 1220.52 551.541 1220.33 551.887 1219.96C552.234 1219.57 552.447 1219.05 552.527 1218.38H552.747V1222ZM556.278 1214.86C556.278 1216.1 556.311 1217.17 556.378 1218.08C556.458 1218.97 556.591 1219.71 556.778 1220.3C556.978 1220.87 557.251 1221.3 557.598 1221.58C557.944 1221.86 558.398 1222 558.958 1222C559.518 1222 559.971 1221.86 560.318 1221.58C560.664 1221.3 560.931 1220.87 561.118 1220.3C561.318 1219.71 561.451 1218.97 561.518 1218.08C561.598 1217.17 561.638 1216.1 561.638 1214.86C561.638 1213.62 561.598 1212.55 561.518 1211.66C561.451 1210.77 561.318 1210.03 561.118 1209.46C560.931 1208.87 560.664 1208.44 560.318 1208.16C559.971 1207.88 559.518 1207.74 558.958 1207.74C558.398 1207.74 557.944 1207.88 557.598 1208.16C557.251 1208.44 556.978 1208.87 556.778 1209.46C556.591 1210.03 556.458 1210.77 556.378 1211.66C556.311 1212.55 556.278 1213.62 556.278 1214.86ZM554.278 1214.86C554.278 1214.06 554.338 1213.23 554.458 1212.36C554.591 1211.48 554.831 1210.68 555.178 1209.96C555.524 1209.23 555.998 1208.63 556.598 1208.16C557.211 1207.69 557.998 1207.46 558.958 1207.46C559.918 1207.46 560.698 1207.69 561.298 1208.16C561.911 1208.63 562.391 1209.23 562.738 1209.96C563.084 1210.68 563.318 1211.48 563.438 1212.36C563.571 1213.23 563.638 1214.06 563.638 1214.86C563.638 1215.67 563.571 1216.52 563.438 1217.4C563.318 1218.27 563.084 1219.07 562.738 1219.8C562.391 1220.52 561.911 1221.11 561.298 1221.58C560.698 1222.05 559.918 1222.28 558.958 1222.28C557.998 1222.28 557.211 1222.05 556.598 1221.58C555.998 1221.11 555.524 1220.52 555.178 1219.8C554.831 1219.07 554.591 1218.27 554.458 1217.4C554.338 1216.52 554.278 1215.67 554.278 1214.86ZM573.528 1222H564.388V1221.72C564.908 1221.28 565.382 1220.87 565.808 1220.5C566.248 1220.13 566.655 1219.76 567.028 1219.4C567.415 1219.04 567.782 1218.67 568.128 1218.3C568.475 1217.93 568.828 1217.53 569.188 1217.1C570.042 1216.06 570.622 1215.05 570.928 1214.08C571.248 1213.11 571.408 1212.21 571.408 1211.38C571.408 1210.18 571.202 1209.27 570.788 1208.66C570.388 1208.05 569.748 1207.74 568.868 1207.74C568.188 1207.74 567.628 1207.89 567.188 1208.2C566.748 1208.49 566.528 1208.91 566.528 1209.44C566.528 1209.63 566.568 1209.82 566.648 1210.02C566.742 1210.21 566.788 1210.4 566.788 1210.6C566.788 1210.83 566.708 1211 566.548 1211.12C566.388 1211.23 566.202 1211.28 565.988 1211.28C565.708 1211.28 565.468 1211.21 565.268 1211.06C565.068 1210.91 564.968 1210.65 564.968 1210.26C564.968 1209.91 565.068 1209.57 565.268 1209.24C565.468 1208.89 565.742 1208.59 566.088 1208.34C566.435 1208.07 566.848 1207.86 567.328 1207.7C567.808 1207.54 568.322 1207.46 568.868 1207.46C569.642 1207.46 570.302 1207.57 570.848 1207.8C571.408 1208.03 571.868 1208.33 572.228 1208.7C572.588 1209.06 572.855 1209.47 573.028 1209.94C573.202 1210.41 573.288 1210.89 573.288 1211.38C573.288 1211.98 573.202 1212.54 573.028 1213.06C572.855 1213.57 572.615 1214.05 572.308 1214.5C572.015 1214.95 571.675 1215.39 571.288 1215.8C570.902 1216.21 570.495 1216.63 570.068 1217.04C569.468 1217.64 568.875 1218.21 568.288 1218.76C567.715 1219.31 567.082 1219.89 566.388 1220.52H570.968C571.755 1220.52 572.322 1220.33 572.668 1219.96C573.015 1219.57 573.228 1219.05 573.308 1218.38H573.528V1222ZM576.699 1214.56C576.806 1214.51 576.912 1214.45 577.019 1214.4C577.126 1214.35 577.246 1214.29 577.379 1214.24C577.526 1214.19 577.692 1214.13 577.879 1214.08C578.079 1214.01 578.312 1213.95 578.579 1213.88C579.166 1213.72 579.652 1213.52 580.039 1213.28C580.426 1213.04 580.726 1212.76 580.939 1212.44C581.166 1212.12 581.319 1211.77 581.399 1211.38C581.492 1210.99 581.539 1210.57 581.539 1210.12C581.539 1209.8 581.506 1209.5 581.439 1209.22C581.372 1208.93 581.259 1208.67 581.099 1208.46C580.939 1208.23 580.726 1208.06 580.459 1207.94C580.206 1207.81 579.879 1207.74 579.479 1207.74C579.039 1207.74 578.679 1207.8 578.399 1207.92C578.119 1208.03 577.899 1208.16 577.739 1208.32C577.592 1208.47 577.492 1208.62 577.439 1208.78C577.386 1208.93 577.359 1209.05 577.359 1209.14C577.359 1209.5 577.412 1209.77 577.519 1209.96C577.639 1210.15 577.699 1210.31 577.699 1210.46C577.699 1210.7 577.612 1210.87 577.439 1210.96C577.279 1211.05 577.086 1211.1 576.859 1211.1C576.272 1211.1 575.979 1210.81 575.979 1210.24C575.979 1210.07 576.032 1209.83 576.139 1209.52C576.259 1209.2 576.459 1208.89 576.739 1208.58C577.019 1208.27 577.392 1208.01 577.859 1207.8C578.339 1207.57 578.932 1207.46 579.639 1207.46C580.279 1207.46 580.832 1207.56 581.299 1207.76C581.779 1207.96 582.172 1208.21 582.479 1208.52C582.786 1208.81 583.012 1209.14 583.159 1209.5C583.306 1209.85 583.379 1210.18 583.379 1210.5C583.379 1211.06 583.212 1211.54 582.879 1211.94C582.559 1212.34 582.179 1212.67 581.739 1212.94C581.312 1213.21 580.879 1213.41 580.439 1213.56C579.999 1213.71 579.666 1213.8 579.439 1213.84V1213.88C580.012 1213.91 580.566 1214.02 581.099 1214.22C581.632 1214.42 582.106 1214.7 582.519 1215.06C582.932 1215.41 583.259 1215.82 583.499 1216.3C583.739 1216.78 583.859 1217.32 583.859 1217.92C583.859 1218.45 583.739 1218.98 583.499 1219.5C583.272 1220.02 582.946 1220.49 582.519 1220.9C582.106 1221.31 581.599 1221.65 580.999 1221.9C580.412 1222.15 579.759 1222.28 579.039 1222.28C578.372 1222.28 577.806 1222.19 577.339 1222C576.872 1221.83 576.486 1221.59 576.179 1221.3C575.872 1220.99 575.632 1220.66 575.459 1220.3C575.286 1219.93 575.166 1219.55 575.099 1219.16L575.379 1219.1C575.406 1219.29 575.472 1219.54 575.579 1219.86C575.686 1220.18 575.866 1220.5 576.119 1220.82C576.386 1221.14 576.746 1221.42 577.199 1221.66C577.666 1221.89 578.266 1222 578.999 1222C579.412 1222 579.799 1221.94 580.159 1221.82C580.519 1221.7 580.826 1221.48 581.079 1221.16C581.346 1220.84 581.552 1220.41 581.699 1219.86C581.846 1219.3 581.919 1218.59 581.919 1217.72C581.919 1217.28 581.886 1216.85 581.819 1216.42C581.752 1215.98 581.619 1215.59 581.419 1215.26C581.219 1214.91 580.946 1214.63 580.599 1214.42C580.252 1214.21 579.799 1214.1 579.239 1214.1C578.772 1214.1 578.346 1214.17 577.959 1214.32C577.572 1214.45 577.212 1214.64 576.879 1214.88L576.699 1214.56Z" fill="#D4904C" fill-opacity="0.5"/>
<path d="M477.7 974.7C477.833 974.633 477.967 974.567 478.1 974.5C478.233 974.433 478.383 974.367 478.55 974.3C478.733 974.233 478.942 974.167 479.175 974.1C479.425 974.017 479.717 973.933 480.05 973.85C480.783 973.65 481.392 973.4 481.875 973.1C482.358 972.8 482.733 972.45 483 972.05C483.283 971.65 483.475 971.208 483.575 970.725C483.692 970.242 483.75 969.717 483.75 969.15C483.75 968.75 483.708 968.375 483.625 968.025C483.542 967.658 483.4 967.342 483.2 967.075C483 966.792 482.733 966.575 482.4 966.425C482.083 966.258 481.675 966.175 481.175 966.175C480.625 966.175 480.175 966.25 479.825 966.4C479.475 966.533 479.2 966.7 479 966.9C478.817 967.083 478.692 967.275 478.625 967.475C478.558 967.658 478.525 967.808 478.525 967.925C478.525 968.375 478.592 968.717 478.725 968.95C478.875 969.183 478.95 969.392 478.95 969.575C478.95 969.875 478.842 970.083 478.625 970.2C478.425 970.317 478.183 970.375 477.9 970.375C477.167 970.375 476.8 970.017 476.8 969.3C476.8 969.083 476.867 968.783 477 968.4C477.15 968 477.4 967.608 477.75 967.225C478.1 966.842 478.567 966.517 479.15 966.25C479.75 965.967 480.492 965.825 481.375 965.825C482.175 965.825 482.867 965.95 483.45 966.2C484.05 966.45 484.542 966.767 484.925 967.15C485.308 967.517 485.592 967.925 485.775 968.375C485.958 968.808 486.05 969.225 486.05 969.625C486.05 970.325 485.842 970.925 485.425 971.425C485.025 971.925 484.55 972.342 484 972.675C483.467 973.008 482.925 973.267 482.375 973.45C481.825 973.633 481.408 973.75 481.125 973.8V973.85C481.842 973.883 482.533 974.025 483.2 974.275C483.867 974.525 484.458 974.875 484.975 975.325C485.492 975.758 485.9 976.275 486.2 976.875C486.5 977.475 486.65 978.15 486.65 978.9C486.65 979.567 486.5 980.225 486.2 980.875C485.917 981.525 485.508 982.108 484.975 982.625C484.458 983.142 483.825 983.558 483.075 983.875C482.342 984.192 481.525 984.35 480.625 984.35C479.792 984.35 479.083 984.233 478.5 984C477.917 983.783 477.433 983.492 477.05 983.125C476.667 982.742 476.367 982.325 476.15 981.875C475.933 981.408 475.783 980.933 475.7 980.45L476.05 980.375C476.083 980.608 476.167 980.925 476.3 981.325C476.433 981.725 476.658 982.125 476.975 982.525C477.308 982.925 477.758 983.275 478.325 983.575C478.908 983.858 479.658 984 480.575 984C481.092 984 481.575 983.925 482.025 983.775C482.475 983.625 482.858 983.35 483.175 982.95C483.508 982.55 483.767 982.008 483.95 981.325C484.133 980.625 484.225 979.733 484.225 978.65C484.225 978.1 484.183 977.558 484.1 977.025C484.017 976.475 483.85 975.992 483.6 975.575C483.35 975.142 483.008 974.792 482.575 974.525C482.142 974.258 481.575 974.125 480.875 974.125C480.292 974.125 479.758 974.217 479.275 974.4C478.792 974.567 478.342 974.8 477.925 975.1L477.7 974.7ZM491.088 983.65H493.863V967.8C493.613 967.983 493.33 968.167 493.013 968.35L490.163 969.975L489.963 969.65C491.063 969.033 492.063 968.442 492.963 967.875C493.863 967.308 494.713 966.625 495.513 965.825H496.013V983.65H498.788V984H491.088V983.65ZM503.277 977.725H507.927V979.375H503.277V977.725ZM513.329 983.65H516.104V967.8C515.854 967.983 515.571 968.167 515.254 968.35L512.404 969.975L512.204 969.65C513.304 969.033 514.304 968.442 515.204 967.875C516.104 967.308 516.954 966.625 517.754 965.825H518.254V983.65H521.029V984H513.329V983.65ZM526.368 975.075C526.368 976.625 526.409 977.967 526.493 979.1C526.593 980.217 526.759 981.142 526.993 981.875C527.243 982.592 527.584 983.125 528.018 983.475C528.451 983.825 529.018 984 529.718 984C530.418 984 530.984 983.825 531.418 983.475C531.851 983.125 532.184 982.592 532.418 981.875C532.668 981.142 532.834 980.217 532.918 979.1C533.018 977.967 533.068 976.625 533.068 975.075C533.068 973.525 533.018 972.192 532.918 971.075C532.834 969.958 532.668 969.042 532.418 968.325C532.184 967.592 531.851 967.05 531.418 966.7C530.984 966.35 530.418 966.175 529.718 966.175C529.018 966.175 528.451 966.35 528.018 966.7C527.584 967.05 527.243 967.592 526.993 968.325C526.759 969.042 526.593 969.958 526.493 971.075C526.409 972.192 526.368 973.525 526.368 975.075ZM523.868 975.075C523.868 974.075 523.943 973.033 524.093 971.95C524.259 970.85 524.559 969.85 524.993 968.95C525.426 968.033 526.018 967.283 526.768 966.7C527.534 966.117 528.518 965.825 529.718 965.825C530.918 965.825 531.893 966.117 532.643 966.7C533.409 967.283 534.009 968.033 534.443 968.95C534.876 969.85 535.168 970.85 535.318 971.95C535.484 973.033 535.568 974.075 535.568 975.075C535.568 976.092 535.484 977.15 535.318 978.25C535.168 979.333 534.876 980.333 534.443 981.25C534.009 982.15 533.409 982.892 532.643 983.475C531.893 984.058 530.918 984.35 529.718 984.35C528.518 984.35 527.534 984.058 526.768 983.475C526.018 982.892 525.426 982.15 524.993 981.25C524.559 980.333 524.259 979.333 524.093 978.25C523.943 977.15 523.868 976.092 523.868 975.075ZM538.506 977.725H543.156V979.375H538.506V977.725ZM557.184 984H545.759V983.65C546.409 983.1 547.001 982.592 547.534 982.125C548.084 981.658 548.592 981.2 549.059 980.75C549.542 980.3 550.001 979.842 550.434 979.375C550.867 978.908 551.309 978.408 551.759 977.875C552.826 976.575 553.551 975.317 553.934 974.1C554.334 972.883 554.534 971.758 554.534 970.725C554.534 969.225 554.276 968.092 553.759 967.325C553.259 966.558 552.459 966.175 551.359 966.175C550.509 966.175 549.809 966.367 549.259 966.75C548.709 967.117 548.434 967.633 548.434 968.3C548.434 968.533 548.484 968.775 548.584 969.025C548.701 969.258 548.759 969.5 548.759 969.75C548.759 970.033 548.659 970.25 548.459 970.4C548.259 970.533 548.026 970.6 547.759 970.6C547.409 970.6 547.109 970.508 546.859 970.325C546.609 970.142 546.484 969.808 546.484 969.325C546.484 968.892 546.609 968.467 546.859 968.05C547.109 967.617 547.451 967.242 547.884 966.925C548.317 966.592 548.834 966.325 549.434 966.125C550.034 965.925 550.676 965.825 551.359 965.825C552.326 965.825 553.151 965.967 553.834 966.25C554.534 966.533 555.109 966.908 555.559 967.375C556.009 967.825 556.342 968.342 556.559 968.925C556.776 969.508 556.884 970.108 556.884 970.725C556.884 971.475 556.776 972.175 556.559 972.825C556.342 973.458 556.042 974.058 555.659 974.625C555.292 975.192 554.867 975.733 554.384 976.25C553.901 976.767 553.392 977.283 552.859 977.8C552.109 978.55 551.367 979.267 550.634 979.95C549.917 980.633 549.126 981.367 548.259 982.15H553.984C554.967 982.15 555.676 981.917 556.109 981.45C556.542 980.967 556.809 980.308 556.909 979.475H557.184V984ZM561.597 975.075C561.597 976.625 561.639 977.967 561.722 979.1C561.822 980.217 561.989 981.142 562.222 981.875C562.472 982.592 562.814 983.125 563.247 983.475C563.681 983.825 564.247 984 564.947 984C565.647 984 566.214 983.825 566.647 983.475C567.081 983.125 567.414 982.592 567.647 981.875C567.897 981.142 568.064 980.217 568.147 979.1C568.247 977.967 568.297 976.625 568.297 975.075C568.297 973.525 568.247 972.192 568.147 971.075C568.064 969.958 567.897 969.042 567.647 968.325C567.414 967.592 567.081 967.05 566.647 966.7C566.214 966.35 565.647 966.175 564.947 966.175C564.247 966.175 563.681 966.35 563.247 966.7C562.814 967.05 562.472 967.592 562.222 968.325C561.989 969.042 561.822 969.958 561.722 971.075C561.639 972.192 561.597 973.525 561.597 975.075ZM559.097 975.075C559.097 974.075 559.172 973.033 559.322 971.95C559.489 970.85 559.789 969.85 560.222 968.95C560.656 968.033 561.247 967.283 561.997 966.7C562.764 966.117 563.747 965.825 564.947 965.825C566.147 965.825 567.122 966.117 567.872 966.7C568.639 967.283 569.239 968.033 569.672 968.95C570.106 969.85 570.397 970.85 570.547 971.95C570.714 973.033 570.797 974.075 570.797 975.075C570.797 976.092 570.714 977.15 570.547 978.25C570.397 979.333 570.106 980.333 569.672 981.25C569.239 982.15 568.639 982.892 567.872 983.475C567.122 984.058 566.147 984.35 564.947 984.35C563.747 984.35 562.764 984.058 561.997 983.475C561.247 982.892 560.656 982.15 560.222 981.25C559.789 980.333 559.489 979.333 559.322 978.25C559.172 977.15 559.097 976.092 559.097 975.075ZM583.161 984H571.736V983.65C572.386 983.1 572.977 982.592 573.511 982.125C574.061 981.658 574.569 981.2 575.036 980.75C575.519 980.3 575.977 979.842 576.411 979.375C576.844 978.908 577.286 978.408 577.736 977.875C578.802 976.575 579.527 975.317 579.911 974.1C580.311 972.883 580.511 971.758 580.511 970.725C580.511 969.225 580.252 968.092 579.736 967.325C579.236 966.558 578.436 966.175 577.336 966.175C576.486 966.175 575.786 966.367 575.236 966.75C574.686 967.117 574.411 967.633 574.411 968.3C574.411 968.533 574.461 968.775 574.561 969.025C574.677 969.258 574.736 969.5 574.736 969.75C574.736 970.033 574.636 970.25 574.436 970.4C574.236 970.533 574.002 970.6 573.736 970.6C573.386 970.6 573.086 970.508 572.836 970.325C572.586 970.142 572.461 969.808 572.461 969.325C572.461 968.892 572.586 968.467 572.836 968.05C573.086 967.617 573.427 967.242 573.861 966.925C574.294 966.592 574.811 966.325 575.411 966.125C576.011 965.925 576.652 965.825 577.336 965.825C578.302 965.825 579.127 965.967 579.811 966.25C580.511 966.533 581.086 966.908 581.536 967.375C581.986 967.825 582.319 968.342 582.536 968.925C582.752 969.508 582.861 970.108 582.861 970.725C582.861 971.475 582.752 972.175 582.536 972.825C582.319 973.458 582.019 974.058 581.636 974.625C581.269 975.192 580.844 975.733 580.361 976.25C579.877 976.767 579.369 977.283 578.836 977.8C578.086 978.55 577.344 979.267 576.611 979.95C575.894 980.633 575.102 981.367 574.236 982.15H579.961C580.944 982.15 581.652 981.917 582.086 981.45C582.519 980.967 582.786 980.308 582.886 979.475H583.161V984ZM587.124 974.7C587.257 974.633 587.39 974.567 587.524 974.5C587.657 974.433 587.807 974.367 587.974 974.3C588.157 974.233 588.365 974.167 588.599 974.1C588.849 974.017 589.14 973.933 589.474 973.85C590.207 973.65 590.815 973.4 591.299 973.1C591.782 972.8 592.157 972.45 592.424 972.05C592.707 971.65 592.899 971.208 592.999 970.725C593.115 970.242 593.174 969.717 593.174 969.15C593.174 968.75 593.132 968.375 593.049 968.025C592.965 967.658 592.824 967.342 592.624 967.075C592.424 966.792 592.157 966.575 591.824 966.425C591.507 966.258 591.099 966.175 590.599 966.175C590.049 966.175 589.599 966.25 589.249 966.4C588.899 966.533 588.624 966.7 588.424 966.9C588.24 967.083 588.115 967.275 588.049 967.475C587.982 967.658 587.949 967.808 587.949 967.925C587.949 968.375 588.015 968.717 588.149 968.95C588.299 969.183 588.374 969.392 588.374 969.575C588.374 969.875 588.265 970.083 588.049 970.2C587.849 970.317 587.607 970.375 587.324 970.375C586.59 970.375 586.224 970.017 586.224 969.3C586.224 969.083 586.29 968.783 586.424 968.4C586.574 968 586.824 967.608 587.174 967.225C587.524 966.842 587.99 966.517 588.574 966.25C589.174 965.967 589.915 965.825 590.799 965.825C591.599 965.825 592.29 965.95 592.874 966.2C593.474 966.45 593.965 966.767 594.349 967.15C594.732 967.517 595.015 967.925 595.199 968.375C595.382 968.808 595.474 969.225 595.474 969.625C595.474 970.325 595.265 970.925 594.849 971.425C594.449 971.925 593.974 972.342 593.424 972.675C592.89 973.008 592.349 973.267 591.799 973.45C591.249 973.633 590.832 973.75 590.549 973.8V973.85C591.265 973.883 591.957 974.025 592.624 974.275C593.29 974.525 593.882 974.875 594.399 975.325C594.915 975.758 595.324 976.275 595.624 976.875C595.924 977.475 596.074 978.15 596.074 978.9C596.074 979.567 595.924 980.225 595.624 980.875C595.34 981.525 594.932 982.108 594.399 982.625C593.882 983.142 593.249 983.558 592.499 983.875C591.765 984.192 590.949 984.35 590.049 984.35C589.215 984.35 588.507 984.233 587.924 984C587.34 983.783 586.857 983.492 586.474 983.125C586.09 982.742 585.79 982.325 585.574 981.875C585.357 981.408 585.207 980.933 585.124 980.45L585.474 980.375C585.507 980.608 585.59 980.925 585.724 981.325C585.857 981.725 586.082 982.125 586.399 982.525C586.732 982.925 587.182 983.275 587.749 983.575C588.332 983.858 589.082 984 589.999 984C590.515 984 590.999 983.925 591.449 983.775C591.899 983.625 592.282 983.35 592.599 982.95C592.932 982.55 593.19 982.008 593.374 981.325C593.557 980.625 593.649 979.733 593.649 978.65C593.649 978.1 593.607 977.558 593.524 977.025C593.44 976.475 593.274 975.992 593.024 975.575C592.774 975.142 592.432 974.792 591.999 974.525C591.565 974.258 590.999 974.125 590.299 974.125C589.715 974.125 589.182 974.217 588.699 974.4C588.215 974.567 587.765 974.8 587.349 975.1L587.124 974.7Z" fill="#D4904C"/>
</svg>
